<svg width="48" height="48" viewBox="0 0 48 48" fill="none" xmlns="http://www.w3.org/2000/svg">
<path d="M21.1716 31.071L11.1213 41.1213C9.94975 42.2928 8.05025 42.2928 6.87868 41.1213V41.1213C5.70711 39.9497 5.70711 38.0502 6.87868 36.8786L16.9289 26.8284" stroke="#9BE15D" stroke-width="1.5" stroke-linecap="round" stroke-linejoin="round"/>
<path d="M34.6027 6L25.2269 15.3756C23.6649 16.9378 23.6649 19.4704 25.2269 21.0325L26.6412 22.4467C27.3914 23.1968 28.4088 23.6183 29.4696 23.6183C30.5305 23.6183 31.5479 23.1968 32.298 22.4467L41.6737 13.071" stroke="#9BE15D" stroke-width="1.5" stroke-linecap="round" stroke-linejoin="round"/>
<path fill-rule="evenodd" clip-rule="evenodd" d="M27.636 31.8787L31.8786 27.636L41.1213 36.8787C42.2928 38.0502 42.2928 39.9497 41.1213 41.1213V41.1213C39.9497 42.2929 38.0502 42.2929 36.8786 41.1213L27.636 31.8787Z" stroke="#9BE15D" stroke-width="1.5" stroke-linecap="round" stroke-linejoin="round"/>
<path d="M32.4541 15.2196L38.1383 9.5354" stroke="#9BE15D" stroke-width="1.5" stroke-linecap="round" stroke-linejoin="round"/>
<path d="M30.1773 25.9671L31.8787 27.636L25.5147 33.9999C25.3272 34.1875 25.0728 34.2928 24.8076 34.2928C24.5424 34.2928 24.288 34.1875 24.1005 33.9999L16.8083 26.7077C10.3145 20.2139 8.2088 11.7911 12.1051 7.89486H12.1376L12.1083 7.8916L31.8657 27.649" stroke="#9BE15D" stroke-width="1.5" stroke-linecap="round" stroke-linejoin="round"/>
<path d="M35.9896 18.7551L28.9186 11.6841" stroke="#9BE15D" stroke-width="1.5" stroke-linecap="round" stroke-linejoin="round"/>
</svg>
