<svg width="400" height="243" viewBox="0 0 400 243" fill="none" xmlns="http://www.w3.org/2000/svg">
<path opacity="0.2" d="M50.3262 34.5998C49.9038 31.2035 48.3889 28.5945 45.7814 26.7729C43.1739 24.9514 39.6754 24.0952 35.2858 24.2044C32.3031 24.2786 29.7952 24.7634 27.7621 25.6586C25.7283 26.5258 24.1809 27.7046 23.12 29.1951C22.0871 30.6849 21.5938 32.3583 21.64 34.2155C21.6222 35.7645 21.9794 37.1071 22.7116 38.2432C23.4719 39.3787 24.4956 40.3528 25.7829 41.1654C27.0694 41.9499 28.5505 42.631 30.226 43.2088C31.9009 43.7584 33.6862 44.2208 35.582 44.5959L43.3944 46.2598C47.1859 47.0102 50.6749 48.0496 53.8614 49.3781C57.0479 50.7066 59.8204 52.3692 62.1789 54.3659C64.5373 56.3626 66.3843 58.738 67.7198 61.4922C69.0835 64.2457 69.8242 67.4229 69.942 71.024C70.0455 76.3147 68.809 80.9348 66.2324 84.8844C63.6833 88.8052 59.9311 91.8971 54.9757 94.1603C50.0477 96.3946 44.0664 97.5992 37.0318 97.7743C30.0535 97.9479 23.949 97.0299 18.7183 95.0202C13.5158 93.0098 9.41326 89.9443 6.41069 85.8238C3.43556 81.6745 1.80029 76.4923 1.50488 70.2772L19.1898 69.8372C19.4589 72.7305 20.3492 75.1298 21.8607 77.0349C23.3996 78.9112 25.4195 80.311 27.9201 81.2342C30.4483 82.1286 33.2881 82.5366 36.4396 82.4582C39.5348 82.3812 42.2108 81.8641 44.4676 80.907C46.7525 79.9491 48.5082 78.6525 49.7345 77.0171C50.9608 75.3817 51.5481 73.5229 51.4962 71.4407C51.4479 69.4991 50.8305 67.8814 49.6439 66.5877C48.4855 65.2932 46.7973 64.2089 44.5794 63.335C42.3897 62.4603 39.7096 61.6823 36.5392 61.001L27.0681 58.8716C19.7362 57.2802 13.9129 54.6517 9.59833 50.9862C5.28377 47.3207 3.06109 42.2939 2.9303 35.9057C2.77194 30.6727 4.05102 26.0656 6.76755 22.0843C9.5122 18.1024 13.3334 14.9524 18.2311 12.6344C23.1289 10.3164 28.7293 9.07897 35.0322 8.92215C41.4478 8.76253 47.0746 9.7206 51.9128 11.7964C56.779 13.8714 60.5974 16.8313 63.3678 20.6761C66.1383 24.5208 67.6298 29.0168 67.8423 34.164L50.3262 34.5998ZM82.8493 95.4095L80.6985 8.96847L98.9744 8.51375L99.8618 44.1791L136.962 43.256L136.075 7.59066L154.308 7.13699L156.459 93.578L138.226 94.0317L137.337 58.3241L100.237 59.2472L101.125 94.9548L82.8493 95.4095ZM186.427 92.8324L166.842 93.3197L194.532 6.13619L218.084 5.5502L250.033 91.2498L230.449 91.7371L207.137 25.5879L206.462 25.6047L186.427 92.8324ZM184.357 58.8858L230.617 57.7348L230.972 72.001L184.712 73.1519L184.357 58.8858ZM260.437 90.9909L258.287 4.54992L292.39 3.70139C298.947 3.53826 304.563 4.65145 309.24 7.04095C313.917 9.4023 317.52 12.7617 320.049 17.1192C322.607 21.4479 323.957 26.4824 324.1 32.2226C324.242 37.9628 323.13 43.0585 320.763 47.5097C318.396 51.9609 314.894 55.469 310.256 58.0339C305.646 60.5982 300.02 61.9629 293.38 62.1282L271.643 62.669L271.278 48.023L290.061 47.5557C293.578 47.4681 296.461 46.7911 298.71 45.5244C300.987 44.2289 302.661 42.4838 303.732 40.2892C304.832 38.0657 305.346 35.5329 305.275 32.691C305.204 29.8209 304.564 27.3309 303.358 25.2211C302.178 23.0824 300.42 21.4509 298.083 20.3265C295.746 19.174 292.804 18.6418 289.259 18.73L276.934 19.0367L278.713 90.5362L260.437 90.9909ZM337.392 89.0762L335.242 2.63521L393.488 1.18599L393.863 16.2541L353.892 17.2486L354.405 37.8459L391.379 36.9259L391.754 51.994L354.78 52.9139L355.293 73.5534L395.433 72.5547L395.808 87.6228L337.392 89.0762ZM86.9068 196.106C87.1413 205.532 85.5541 213.596 82.145 220.298C78.7641 226.998 74.05 232.169 68.0026 235.811C61.9827 239.424 55.16 241.326 47.5345 241.515C39.8528 241.706 32.9155 240.133 26.7226 236.796C20.5298 233.459 15.5784 228.528 11.8684 222.004C8.15847 215.48 6.18657 207.518 5.95273 198.12C5.7182 188.694 7.29138 180.63 10.6723 173.929C14.0532 167.229 18.7536 162.072 24.7735 158.459C30.7927 154.818 37.6432 152.902 45.325 152.711C52.9505 152.521 59.8596 154.095 66.0525 157.432C72.2728 160.74 77.2379 165.657 80.9478 172.181C84.6859 178.705 86.6722 186.679 86.9068 196.106ZM68.3777 196.567C68.2258 190.461 67.1831 185.334 65.2498 181.187C63.3447 177.039 60.719 173.923 57.3729 171.838C54.0268 169.754 50.1449 168.766 45.7272 168.876C41.3095 168.986 37.4815 170.165 34.2432 172.414C31.0049 174.662 28.5234 177.906 26.7988 182.144C25.1022 186.381 24.3299 191.553 24.4818 197.659C24.6338 203.765 25.6623 208.892 27.5675 213.04C29.5008 217.187 32.1405 220.303 35.4866 222.388C38.8327 224.472 42.7146 225.46 47.1323 225.35C51.55 225.24 55.378 224.061 58.6163 221.812C61.8546 219.563 64.322 216.321 66.0185 212.083C67.7432 207.845 68.5296 202.673 68.3777 196.567ZM171.671 150.75L173.822 237.191L158.036 237.583L119.076 184.114L118.442 184.129L119.796 238.535L101.52 238.99L99.3695 152.548L115.408 152.149L154.072 205.584L154.832 205.565L153.48 151.202L171.671 150.75Z" fill="white"/>
</svg>
