<svg width="48" height="48" viewBox="0 0 48 48" fill="none" xmlns="http://www.w3.org/2000/svg">
<g clip-path="url(#clip0_28062_23)">
<path d="M32.1319 13.5804C28.9701 4.43072 24 0.703125 24 0.703125L18.7394 13.4788L15.7333 11.2243C15.7333 11.2243 8.96973 20.2425 8.96973 32.2667C8.96973 40.5676 15.699 47.2969 24 47.2969C32.301 47.2969 39.0303 40.5676 39.0303 32.2666C39.0303 22.4969 36.0242 14.9818 36.0242 14.9818L33.0181 16.4848" stroke="#9BE15D" stroke-width="1.40625" stroke-miterlimit="10" stroke-linecap="round" stroke-linejoin="round"/>
<path d="M17.769 29.547C18.6533 28.0112 19.4909 27.0061 19.4909 27.0061L23.2485 30.0122L25.503 19.491C25.503 19.491 32.2666 27.0061 32.2666 36.0242C32.2666 40.5898 28.5655 44.2908 24 44.2908C19.4345 44.2908 15.7334 40.5898 15.7334 36.0242C15.7334 34.7367 16.0398 33.4491 16.4776 32.2666" stroke="#9BE15D" stroke-width="1.40625" stroke-miterlimit="10" stroke-linecap="round" stroke-linejoin="round"/>
</g>
<defs>
<clipPath id="clip0_28062_23">
<rect width="48" height="48" fill="white"/>
</clipPath>
</defs>
</svg>
