<svg width="45" height="45" viewBox="0 0 45 45" fill="none" xmlns="http://www.w3.org/2000/svg">
<g clip-path="url(#clip0_28068_44)">
<path d="M33.2777 0.350208C33.1424 0.132428 32.9042 0 32.6477 0H19.5555C19.2357 0 18.9518 0.205022 18.8513 0.508647L11.6482 22.2668C11.5733 22.4929 11.6116 22.7413 11.7511 22.9343C11.8905 23.1274 12.1142 23.2417 12.3524 23.2417H18.581L12.8277 44.0605C12.7309 44.4108 12.9021 44.7796 13.2321 44.9319C13.3322 44.9779 13.4378 45 13.5422 45C13.7824 45 14.0155 44.8832 14.1573 44.6733L32.0723 18.1543C32.2259 17.927 32.2414 17.6334 32.1127 17.3911C31.984 17.1488 31.732 16.9974 31.4576 16.9974H25.448L33.3128 1.07011C33.4264 0.840262 33.413 0.567988 33.2777 0.350208ZM23.5893 17.4108C23.4758 17.6407 23.489 17.9129 23.6243 18.1307C23.7596 18.3485 23.9979 18.4809 24.2543 18.4809H30.0612L15.4646 40.088L20.2706 22.6976C20.3322 22.4742 20.2861 22.235 20.1458 22.0507C20.0055 21.8664 19.7871 21.7582 19.5555 21.7582H13.3793L20.0913 1.48351H31.4542L23.5893 17.4108Z" fill="#9BE15D"/>
</g>
<defs>
<clipPath id="clip0_28068_44">
<rect width="45" height="45" fill="white"/>
</clipPath>
</defs>
</svg>
