<svg width="350" height="373" viewBox="0 0 350 373" fill="none" xmlns="http://www.w3.org/2000/svg">
<g filter="url(#filter0_d_28034_176)">
<circle cx="174.942" cy="179.192" r="149.09" fill="#9BE15D"/>
<circle cx="175.748" cy="179.998" r="143.449" fill="url(#paint0_linear_28034_176)" stroke="#1F4D3A" stroke-width="3.22357"/>
<path d="M70.3309 115.153L67.2723 113.107L70.6976 107.987L82.8489 116.117L80.5691 119.525L71.4764 113.441L70.3309 115.153ZM79.3808 108.011C77.6254 106.535 76.5429 105.016 76.1332 103.452C75.7235 101.888 76.1622 100.34 77.4493 98.8096C78.7364 97.2788 80.1855 96.581 81.7964 96.7161C83.416 96.841 85.1035 97.6414 86.8588 99.1172C88.6345 100.61 89.7272 102.139 90.1369 103.703C90.5466 105.266 90.1036 106.819 88.808 108.36C87.5123 109.901 86.059 110.604 84.448 110.469C82.8456 110.323 81.1565 109.504 79.3808 108.011ZM84.3618 102.087C83.4433 101.315 82.6627 100.824 82.0201 100.615C81.3672 100.397 80.7876 100.589 80.2813 101.191C79.7751 101.793 79.6854 102.397 80.0122 103.003C80.3288 103.6 80.9464 104.285 81.8649 105.057C82.8038 105.846 83.5954 106.355 84.2397 106.583C84.8824 106.793 85.4611 106.591 85.976 105.979C86.4908 105.366 86.5856 104.767 86.2604 104.18C85.9336 103.574 85.3007 102.876 84.3618 102.087ZM89.8879 95.7791C88.3441 94.0832 87.4731 92.433 87.2747 90.8286C87.0764 89.2241 87.7167 87.7488 89.1958 86.4025C90.6748 85.0562 92.2037 84.557 93.7824 84.9049C95.3711 85.2438 96.9372 86.2612 98.481 87.9572C100.043 89.6728 100.923 91.3329 101.121 92.9373C101.319 94.5417 100.674 96.0216 99.1852 97.3768C97.6963 98.7321 96.1625 99.2358 94.5838 98.8879C93.0149 98.531 91.4496 97.4948 89.8879 95.7791ZM95.6117 90.569C94.8039 89.6816 94.0954 89.0914 93.4863 88.7985C92.8681 88.4957 92.2681 88.6091 91.6864 89.1387C91.1046 89.6682 90.9355 90.2549 91.179 90.8987C91.4135 91.5327 91.9346 92.2934 92.7424 93.1808C93.5681 94.0879 94.2851 94.6973 94.8934 95.0091C95.5026 95.302 96.103 95.1792 96.6946 94.6406C97.2862 94.1021 97.4598 93.5204 97.2155 92.8954C96.972 92.2516 96.4374 91.4761 95.6117 90.569ZM100.017 82.328C99.3924 81.3821 99.1822 80.4824 99.386 79.6292C99.5897 78.7759 100.126 78.0628 100.994 77.4901C101.851 76.9246 102.711 76.7161 103.576 76.8644C104.441 77.0127 105.185 77.5598 105.809 78.5058C106.426 79.4406 106.636 80.3402 106.44 81.2047C106.236 82.0579 105.706 82.7673 104.849 83.3327C103.992 83.8982 103.126 84.1104 102.25 83.9694C101.378 83.81 100.633 83.2628 100.017 82.328ZM110.062 71.7696L111.523 87.7465L108.385 89.8174L106.924 73.8405L110.062 71.7696ZM102.244 79.4208C101.787 79.7219 101.78 80.2063 102.22 80.874C102.661 81.5418 103.109 81.7251 103.565 81.424C103.788 81.2772 103.905 81.0799 103.918 80.8322C103.941 80.5771 103.843 80.2826 103.622 79.9488C103.402 79.6149 103.17 79.4086 102.926 79.3297C102.694 79.2436 102.466 79.2739 102.244 79.4208ZM112.627 83.0645C112.01 82.1297 111.804 81.2356 112.008 80.3823C112.215 79.5106 112.747 78.792 113.604 78.2265C114.461 77.6611 115.32 77.4618 116.181 77.6286C117.045 77.7769 117.786 78.3185 118.403 79.2533C119.027 80.1993 119.241 81.1044 119.045 81.9689C118.852 82.8148 118.327 83.5205 117.47 84.0859C116.614 84.6514 115.747 84.8636 114.871 84.7226C113.999 84.5632 113.251 84.0105 112.627 83.0645ZM114.854 80.1573C114.387 80.4657 114.373 80.9538 114.814 81.6215C115.262 82.3004 115.72 82.4856 116.187 82.1772C116.398 82.0377 116.51 81.8441 116.523 81.5963C116.539 81.3302 116.437 81.0301 116.216 80.6963C116.003 80.3735 115.775 80.1728 115.531 80.0939C115.291 79.9967 115.066 80.0178 114.854 80.1573ZM133.539 75.753C132.016 76.3605 130.622 76.5003 129.357 76.1722C128.087 75.8317 127.146 75.0013 126.533 73.681L130.416 72.1325C130.636 72.5759 130.905 72.856 131.225 72.9727C131.544 73.0894 131.889 73.0736 132.261 72.9254C132.595 72.7921 132.836 72.6029 132.982 72.3579C133.136 72.0956 133.153 71.8159 133.035 71.5186C132.882 71.1347 132.583 70.9091 132.14 70.8418C131.697 70.7745 131.021 70.7714 130.113 70.8323C129.144 70.8883 128.342 70.8925 127.706 70.8448C127.077 70.7798 126.463 70.5724 125.864 70.2227C125.273 69.8557 124.812 69.2573 124.481 68.4275C124.145 67.5853 124.069 66.783 124.253 66.0206C124.432 65.2459 124.831 64.5555 125.451 63.9495C126.071 63.3435 126.851 62.8528 127.792 62.4774C129.316 61.8699 130.673 61.745 131.863 62.1027C133.061 62.4431 133.948 63.245 134.524 64.5083L130.567 66.0864C130.396 65.695 130.154 65.4472 129.84 65.3429C129.538 65.2337 129.207 65.2507 128.848 65.3939C128.575 65.5026 128.385 65.672 128.275 65.9021C128.166 66.1323 128.171 66.396 128.289 66.6932C128.388 66.9409 128.568 67.1206 128.827 67.2323C129.095 67.3266 129.398 67.3851 129.737 67.4077C130.071 67.418 130.557 67.411 131.193 67.3869C132.136 67.3408 132.931 67.354 133.577 67.4265C134.231 67.4816 134.851 67.6865 135.437 68.0411C136.031 68.3784 136.481 68.931 136.788 69.6989C137.099 70.4791 137.18 71.2579 137.03 72.0352C136.893 72.8075 136.525 73.5215 135.925 74.177C135.338 74.8276 134.542 75.3529 133.539 75.753ZM150.094 68.0869L145.234 69.2594L145.034 71.6735L141.029 72.6396L142.719 57.7274L147.113 56.6675L155.397 69.1737L151.372 70.1445L150.094 68.0869ZM148.438 65.4003L145.891 61.3239L145.502 66.1085L148.438 65.4003ZM167.766 53.4788L168.074 56.5834L164.333 56.9556L165.42 67.8817L161.519 68.2697L160.432 57.3436L156.73 57.7118L156.421 54.6072L167.766 53.4788ZM176.48 53.169L176.51 67.2689L172.59 67.2774L172.56 53.1774L176.48 53.169ZM186.016 68.0234C184.384 67.865 183.08 67.3502 182.107 66.4787C181.134 65.594 180.678 64.4246 180.739 62.9703L184.9 63.3739C184.892 63.8688 185.003 64.2412 185.233 64.4913C185.464 64.7414 185.778 64.8857 186.176 64.9243C186.534 64.9591 186.834 64.9012 187.077 64.7505C187.334 64.5879 187.478 64.3473 187.509 64.0288C187.548 63.6174 187.387 63.2803 187.024 63.0173C186.661 62.7544 186.062 62.4417 185.226 62.0794C184.34 61.6853 183.625 61.3212 183.082 60.9872C182.552 60.6412 182.102 60.1755 181.73 59.5902C181.373 58.9929 181.237 58.2497 181.323 57.3605C181.411 56.4581 181.711 55.7102 182.224 55.117C182.739 54.5105 183.41 54.08 184.238 53.8254C185.067 53.5709 185.985 53.4925 186.994 53.5904C188.626 53.7487 189.89 54.2598 190.784 55.1234C191.692 55.9752 192.113 57.0943 192.045 58.481L187.805 58.0696C187.833 57.6437 187.731 57.3123 187.5 57.0755C187.282 56.84 186.98 56.7036 186.595 56.6662C186.303 56.6379 186.056 56.701 185.853 56.8555C185.651 57.01 185.534 57.2465 185.503 57.565C185.478 57.8304 185.555 58.0723 185.734 58.2907C185.929 58.4971 186.171 58.6881 186.462 58.8637C186.755 59.026 187.189 59.2423 187.766 59.5126C188.625 59.9041 189.326 60.2801 189.867 60.6407C190.422 60.9893 190.879 61.4556 191.238 62.0396C191.611 62.6117 191.758 63.3091 191.678 64.1319C191.597 64.968 191.312 65.6972 190.823 66.3195C190.347 66.9432 189.692 67.4088 188.859 67.7164C188.038 68.0253 187.091 68.1277 186.016 68.0234ZM207.454 57.2342L206.77 60.2784L201.267 59.0428L200.724 61.4625L204.783 62.3739L204.13 65.2815L200.071 64.3701L198.862 69.756L195.037 68.8972L198.126 55.1397L207.454 57.2342ZM217.039 72.8739L212.351 71.1375L210.839 73.0305L206.976 71.5997L216.692 60.1622L220.931 61.7318L220.836 76.7323L216.953 75.2946L217.039 72.8739ZM217.162 69.7202L217.32 64.9162L214.33 68.6715L217.162 69.7202ZM226.84 71.5978C227.514 70.3858 228.364 69.4471 229.39 68.7818C230.434 68.1112 231.568 67.7729 232.792 67.7668C234.022 67.749 235.243 68.077 236.455 68.7508C237.993 69.606 239.057 70.7388 239.646 72.1493C240.241 73.5481 240.298 75.0368 239.817 76.6153L236.129 74.5648C236.167 73.9756 236.055 73.4485 235.795 72.9835C235.547 72.525 235.166 72.1532 234.653 71.8681C233.861 71.4276 233.067 71.36 232.272 71.6654C231.495 71.9656 230.844 72.5877 230.319 73.5316C229.788 74.4872 229.596 75.3801 229.745 76.2103C229.912 77.0353 230.392 77.668 231.184 78.1086C231.697 78.3936 232.213 78.5207 232.734 78.4898C233.266 78.4653 233.773 78.2816 234.253 77.9385L237.942 79.989C236.855 81.2306 235.557 81.9736 234.048 82.218C232.546 82.4506 231.025 82.1394 229.487 81.2842C228.275 80.6104 227.349 79.7522 226.708 78.7095C226.074 77.6551 225.763 76.5135 225.775 75.2845C225.805 74.0503 226.16 72.8214 226.84 71.5978ZM255.672 81.5726L253.799 84.0678L250.792 81.8106L244.2 90.5918L241.065 88.2385L247.657 79.4573L244.682 77.224L246.555 74.7288L255.672 81.5726ZM262.345 87.3277L252.759 97.6684L249.884 95.0035L259.47 84.6628L262.345 87.3277ZM260.092 105.832C259.228 104.834 258.666 103.716 258.405 102.478C258.154 101.231 258.229 100.003 258.627 98.793C259.045 97.5848 259.778 96.5269 260.827 95.6193C261.875 94.7117 263.022 94.142 264.268 93.9102C265.532 93.6798 266.758 93.7822 267.946 94.2175C269.134 94.6527 270.16 95.3693 271.024 96.3673C271.897 97.3753 272.459 98.4934 272.711 99.7214C272.972 100.96 272.893 102.183 272.475 103.391C272.068 104.59 271.34 105.644 270.291 106.552C269.243 107.459 268.091 108.033 266.835 108.274C265.59 108.505 264.368 108.408 263.17 107.982C261.982 107.546 260.956 106.83 260.092 105.832ZM262.844 103.449C263.498 104.205 264.26 104.586 265.129 104.592C266.007 104.608 266.86 104.258 267.686 103.543C268.533 102.809 269.006 102.012 269.106 101.149C269.225 100.288 268.957 99.4796 268.302 98.7236C267.639 97.9575 266.873 97.5715 266.004 97.5657C265.145 97.5511 264.292 97.9104 263.445 98.6434C262.608 99.3678 262.13 100.161 262.012 101.022C261.903 101.874 262.181 102.683 262.844 103.449ZM274.264 125.135L272.156 121.83L275.993 113.192L269.349 117.429L267.241 114.124L279.129 106.542L281.237 109.847L277.316 118.54L284.044 114.248L286.152 117.554L274.264 125.135Z" fill="white"/>
<path d="M259.433 272.713C259.748 272.909 260.067 273.042 260.391 273.113C260.718 273.188 261.047 273.203 261.378 273.158C261.709 273.112 262.036 273.005 262.36 272.834C262.687 272.668 263.004 272.442 263.311 272.154C263.929 271.576 264.324 270.926 264.497 270.204C264.666 269.486 264.604 268.726 264.313 267.925C264.026 267.127 263.502 266.322 262.741 265.509C261.976 264.692 261.206 264.105 260.43 263.75C259.654 263.394 258.9 263.275 258.169 263.391C257.437 263.508 256.752 263.865 256.113 264.463C255.549 264.991 255.157 265.529 254.938 266.076C254.719 266.632 254.666 267.175 254.781 267.705C254.897 268.235 255.17 268.731 255.6 269.191L254.964 269.659L258.063 266.759L260.165 269.005L254.67 274.147L253.092 272.461C252.025 271.32 251.353 270.116 251.077 268.848C250.798 267.585 250.877 266.339 251.316 265.112C251.75 263.888 252.515 262.764 253.611 261.739C254.826 260.601 256.141 259.865 257.555 259.53C258.969 259.195 260.389 259.274 261.816 259.768C263.247 260.266 264.591 261.186 265.849 262.531C266.827 263.576 267.539 264.649 267.985 265.749C268.435 266.853 268.646 267.948 268.618 269.032C268.586 270.12 268.339 271.153 267.876 272.131C267.409 273.112 266.751 274.001 265.9 274.797C265.162 275.488 264.376 276.025 263.544 276.407C262.707 276.793 261.863 277.023 261.012 277.095C260.158 277.171 259.328 277.087 258.524 276.844C257.72 276.6 256.984 276.196 256.316 275.631L259.433 272.713ZM245.084 290.702L241.551 292.991L235.43 283.542C234.722 282.45 234.366 281.33 234.361 280.183C234.358 279.04 234.679 277.946 235.321 276.9C235.967 275.859 236.905 274.94 238.135 274.143C239.38 273.337 240.609 272.852 241.823 272.688C243.041 272.529 244.168 272.686 245.205 273.158C246.245 273.636 247.119 274.42 247.826 275.512L253.947 284.961L250.406 287.255L244.485 278.113C244.157 277.608 243.755 277.228 243.28 276.974C242.799 276.724 242.286 276.616 241.74 276.652C241.195 276.687 240.657 276.876 240.128 277.219C239.598 277.562 239.208 277.973 238.958 278.454C238.702 278.938 238.591 279.45 238.623 279.991C238.655 280.532 238.835 281.055 239.163 281.561L245.084 290.702ZM224.253 282.304L228.441 280.566L229.691 298.945L224.503 301.097L212.374 287.232L216.562 285.495L225.352 295.983L225.478 295.931L224.253 282.304ZM227.444 288.416L218.691 292.049L217.463 289.089L226.216 285.457L227.444 288.416ZM208.379 288.639L212.132 305.685L205.091 307.235C203.814 307.516 202.662 307.528 201.634 307.272C200.602 307.022 199.739 306.526 199.046 305.782C198.354 305.044 197.88 304.093 197.623 302.928C197.363 301.746 197.4 300.684 197.734 299.744C198.069 298.809 198.664 298.021 199.517 297.379C200.372 296.743 201.449 296.282 202.747 295.996L207.2 295.016L207.915 298.262L204.228 299.074C203.606 299.211 203.105 299.405 202.724 299.658C202.339 299.917 202.075 300.237 201.932 300.618C201.79 301.004 201.777 301.46 201.893 301.988C202.009 302.515 202.213 302.926 202.506 303.223C202.799 303.525 203.175 303.715 203.635 303.794C204.096 303.879 204.634 303.854 205.25 303.718L207.281 303.271L204.259 289.546L208.379 288.639ZM200.498 298.542L194.537 291.686L199.032 290.697L204.909 297.571L200.498 298.542ZM186.736 292.515L191.265 292.308L186.176 310.013L180.566 310.269L173.888 293.1L178.418 292.894L183.107 305.751L183.243 305.744L186.736 292.515ZM187.653 299.349L178.185 299.781L178.04 296.58L187.507 296.148L187.653 299.349ZM152.596 308.362L154.935 291.065L158.483 291.545L164.016 302.459L164.126 302.474L165.476 292.491L169.656 293.056L167.317 310.353L163.719 309.867L158.26 298.98L158.116 298.961L156.768 308.927L152.596 308.362ZM146.317 303.717L145.283 306.984L131.218 302.534L132.251 299.267L137.297 300.864L141.529 287.489L145.494 288.743L141.263 302.118L146.317 303.717ZM132.332 284.359L124.492 299.954L113.618 294.487L115.157 291.426L122.261 294.998L123.869 291.8L117.321 288.507L118.863 285.439L125.412 288.731L127.024 285.525L119.919 281.953L121.458 278.892L132.332 284.359ZM117.075 276.463L106.947 290.678L97.0349 283.616L99.0231 280.826L105.499 285.44L107.576 282.525L101.607 278.271L103.6 275.474L109.569 279.728L111.651 276.805L105.176 272.191L107.164 269.401L117.075 276.463ZM98.5796 261.832L103.203 266.332L91.0289 278.84L86.4116 274.346C85.1372 273.106 84.2836 271.787 83.8509 270.391C83.4101 268.995 83.395 267.584 83.8056 266.16C84.2123 264.741 85.0477 263.381 86.3119 262.082C87.58 260.779 88.9202 259.903 90.3325 259.454C91.7407 259.001 93.1507 258.974 94.5624 259.373C95.9701 259.776 97.3092 260.596 98.5796 261.832ZM97.6712 265.967L96.1871 264.522C95.4868 263.841 94.7794 263.382 94.065 263.147C93.3426 262.911 92.5957 262.942 91.8242 263.237C91.0447 263.533 90.217 264.131 89.3412 265.031C88.4654 265.931 87.8942 266.77 87.6275 267.549C87.3568 268.332 87.3529 269.082 87.6157 269.797C87.8705 270.513 88.3562 271.22 89.0728 271.917L90.5142 273.32L97.6712 265.967Z" fill="white"/>
<circle cx="175.748" cy="179.998" r="101.543" fill="#1F4D3A"/>
<circle cx="175.748" cy="179.998" r="95.9013" fill="url(#paint1_linear_28034_176)" stroke="url(#paint2_linear_28034_176)" stroke-width="1.61179"/>
<g filter="url(#filter1_d_28034_176)">
<path d="M140.606 190.575C136.625 190.575 132.844 189.952 129.264 188.707C125.705 187.439 122.547 185.449 119.789 182.735C117.031 180.022 114.863 176.486 113.284 172.127C111.727 167.768 110.96 162.485 110.982 156.28C111.004 150.742 111.716 145.761 113.117 141.335C114.541 136.909 116.553 133.139 119.155 130.025C121.78 126.912 124.916 124.532 128.563 122.886C132.211 121.218 136.269 120.384 140.74 120.384C145.766 120.384 150.192 121.352 154.017 123.287C157.843 125.222 160.89 127.813 163.158 131.06C165.449 134.285 166.783 137.843 167.162 141.735H148.88C148.457 139.8 147.479 138.388 145.944 137.498C144.432 136.586 142.697 136.13 140.74 136.13C136.848 136.13 133.99 137.821 132.166 141.201C130.365 144.582 129.442 149.03 129.397 154.546H129.797C130.665 152.455 131.977 150.665 133.734 149.175C135.491 147.684 137.537 146.539 139.872 145.738C142.208 144.938 144.676 144.537 147.279 144.537C151.415 144.537 155.029 145.471 158.121 147.34C161.234 149.208 163.659 151.766 165.393 155.013C167.128 158.26 167.984 161.974 167.962 166.155C167.984 171.048 166.828 175.329 164.493 178.999C162.18 182.669 158.966 185.516 154.851 187.539C150.737 189.563 145.989 190.575 140.606 190.575ZM140.473 176.564C142.319 176.564 143.954 176.141 145.377 175.296C146.823 174.451 147.946 173.294 148.746 171.826C149.569 170.359 149.97 168.691 149.947 166.822C149.97 164.932 149.569 163.264 148.746 161.818C147.946 160.35 146.823 159.194 145.377 158.349C143.954 157.504 142.319 157.081 140.473 157.081C139.116 157.081 137.86 157.326 136.703 157.815C135.569 158.282 134.579 158.96 133.734 159.85C132.889 160.717 132.222 161.752 131.732 162.953C131.265 164.131 131.021 165.421 130.998 166.822C131.021 168.691 131.443 170.359 132.266 171.826C133.089 173.294 134.212 174.451 135.636 175.296C137.059 176.141 138.671 176.564 140.473 176.564ZM205.179 191.509C198.974 191.487 193.614 190.053 189.099 187.206C184.584 184.359 181.104 180.256 178.657 174.896C176.211 169.536 174.999 163.108 175.021 155.613C175.043 148.096 176.266 141.713 178.691 136.464C181.137 131.215 184.607 127.223 189.099 124.488C193.614 121.752 198.974 120.384 205.179 120.384C211.384 120.384 216.744 121.763 221.259 124.521C225.774 127.257 229.254 131.249 231.701 136.497C234.147 141.746 235.359 148.118 235.337 155.613C235.337 163.153 234.114 169.602 231.668 174.962C229.221 180.322 225.74 184.426 221.226 187.273C216.733 190.097 211.384 191.509 205.179 191.509ZM205.179 176.43C208.382 176.43 211.006 174.762 213.052 171.426C215.121 168.068 216.144 162.797 216.121 155.613C216.121 150.92 215.654 147.084 214.72 144.104C213.786 141.123 212.496 138.922 210.85 137.498C209.205 136.053 207.314 135.33 205.179 135.33C201.976 135.33 199.363 136.953 197.339 140.2C195.315 143.448 194.281 148.585 194.237 155.613C194.215 160.395 194.67 164.331 195.605 167.423C196.539 170.492 197.829 172.761 199.474 174.228C201.142 175.696 203.044 176.43 205.179 176.43Z" fill="white"/>
</g>
<g filter="url(#filter2_d_28034_176)">
<path d="M125.596 233.713H112.969V199.552H125.579C129.06 199.552 132.057 200.236 134.57 201.604C137.094 202.96 139.04 204.917 140.408 207.475C141.776 210.022 142.46 213.069 142.46 216.616C142.46 220.174 141.776 223.233 140.408 225.79C139.051 228.348 137.111 230.311 134.587 231.678C132.062 233.035 129.065 233.713 125.596 233.713ZM121.226 226.674H125.279C127.192 226.674 128.81 226.352 130.133 225.707C131.467 225.051 132.474 223.989 133.152 222.521C133.842 221.042 134.186 219.074 134.186 216.616C134.186 214.158 133.842 212.201 133.152 210.745C132.463 209.277 131.445 208.22 130.1 207.575C128.765 206.919 127.119 206.591 125.162 206.591H121.226V226.674ZM152.182 233.713H143.308L154.834 199.552H165.826L177.352 233.713H168.478L160.455 208.159H160.188L152.182 233.713ZM150.997 220.269H169.546V226.541H150.997V220.269ZM175.373 199.552H184.597L191.82 213.847H192.12L199.343 199.552H208.567L196.074 222.304V233.713H187.867V222.304L175.373 199.552ZM230.024 209.794C229.913 208.57 229.418 207.62 228.539 206.941C227.672 206.252 226.432 205.907 224.819 205.907C223.752 205.907 222.862 206.046 222.151 206.324C221.439 206.602 220.905 206.986 220.549 207.475C220.193 207.953 220.01 208.504 219.999 209.127C219.977 209.638 220.077 210.088 220.299 210.478C220.533 210.867 220.866 211.212 221.3 211.512C221.745 211.801 222.278 212.057 222.901 212.279C223.524 212.502 224.225 212.696 225.003 212.863L227.939 213.53C229.629 213.897 231.119 214.386 232.409 214.998C233.71 215.61 234.8 216.338 235.678 217.183C236.568 218.028 237.241 219.001 237.697 220.102C238.153 221.203 238.386 222.437 238.397 223.805C238.386 225.963 237.841 227.814 236.763 229.36C235.684 230.906 234.133 232.09 232.109 232.913C230.096 233.736 227.666 234.147 224.819 234.147C221.962 234.147 219.471 233.719 217.347 232.863C215.223 232.006 213.571 230.705 212.393 228.959C211.214 227.214 210.608 225.006 210.574 222.337H218.481C218.548 223.438 218.842 224.356 219.365 225.09C219.888 225.824 220.605 226.38 221.517 226.758C222.44 227.136 223.507 227.325 224.719 227.325C225.831 227.325 226.777 227.175 227.555 226.874C228.345 226.574 228.951 226.157 229.373 225.623C229.796 225.09 230.013 224.478 230.024 223.789C230.013 223.144 229.812 222.593 229.423 222.137C229.034 221.67 228.434 221.27 227.622 220.936C226.821 220.591 225.798 220.275 224.553 219.985L220.983 219.151C218.025 218.473 215.695 217.378 213.994 215.865C212.293 214.342 211.447 212.285 211.458 209.694C211.447 207.581 212.014 205.729 213.16 204.139C214.305 202.549 215.89 201.309 217.914 200.419C219.938 199.53 222.245 199.085 224.836 199.085C227.483 199.085 229.779 199.535 231.725 200.436C233.682 201.326 235.2 202.577 236.279 204.189C237.358 205.802 237.908 207.67 237.93 209.794H230.024Z" fill="#F5E49F"/>
</g>
<path d="M55.6289 153.104L57.9708 147.958L53.8002 144.14L59.4182 144.777L61.7602 139.631L62.8904 145.171L68.5084 145.808L63.5888 148.595L64.719 154.135L60.5484 150.317L55.6289 153.104Z" fill="white"/>
<path d="M49.2962 204.153L51.6381 199.007L47.4675 195.189L53.0855 195.826L55.4275 190.68L56.5576 196.22L62.1757 196.857L57.2561 199.644L58.3863 205.184L54.2157 201.366L49.2962 204.153Z" fill="white"/>
<path d="M47.649 182.408L51.3149 174.353L44.7866 168.377L53.5806 169.374L57.2465 161.319L59.0156 169.99L67.8095 170.988L60.1089 175.35L61.878 184.021L55.3497 178.046L47.649 182.408Z" fill="white"/>
<path d="M300.484 154.517L299.205 149.32L303.752 146.498L298.414 146.108L297.135 140.911L295.116 145.868L289.778 145.478L293.867 148.931L291.847 153.887L296.395 151.065L300.484 154.517Z" fill="white"/>
<path d="M297.451 203.115L296.171 197.918L300.719 195.096L295.381 194.706L294.102 189.509L292.082 194.465L286.744 194.076L290.834 197.528L288.814 202.485L293.361 199.662L297.451 203.115Z" fill="white"/>
<path d="M302.784 183.174L300.782 175.039L307.9 170.621L299.545 170.011L297.543 161.876L294.381 169.634L286.025 169.025L292.427 174.429L289.265 182.187L296.383 177.769L302.784 183.174Z" fill="white"/>
</g>
<defs>
<filter id="filter0_d_28034_176" x="-4" y="0" width="357.758" height="372.845" filterUnits="userSpaceOnUse" color-interpolation-filters="sRGB">
<feFlood flood-opacity="0" result="BackgroundImageFix"/>
<feColorMatrix in="SourceAlpha" type="matrix" values="0 0 0 0 0 0 0 0 0 0 0 0 0 0 0 0 0 0 127 0" result="hardAlpha"/>
<feOffset dy="4"/>
<feGaussianBlur stdDeviation="2"/>
<feComposite in2="hardAlpha" operator="out"/>
<feColorMatrix type="matrix" values="0 0 0 0 0 0 0 0 0 0 0 0 0 0 0 0 0 0 0.25 0"/>
<feBlend mode="normal" in2="BackgroundImageFix" result="effect1_dropShadow_28034_176"/>
<feBlend mode="normal" in="SourceGraphic" in2="effect1_dropShadow_28034_176" result="shape"/>
</filter>
<filter id="filter1_d_28034_176" x="100.695" y="120.384" width="144.929" height="91.6324" filterUnits="userSpaceOnUse" color-interpolation-filters="sRGB">
<feFlood flood-opacity="0" result="BackgroundImageFix"/>
<feColorMatrix in="SourceAlpha" type="matrix" values="0 0 0 0 0 0 0 0 0 0 0 0 0 0 0 0 0 0 127 0" result="hardAlpha"/>
<feOffset dy="10.2537"/>
<feGaussianBlur stdDeviation="5.12685"/>
<feComposite in2="hardAlpha" operator="out"/>
<feColorMatrix type="matrix" values="0 0 0 0 0 0 0 0 0 0 0 0 0 0 0 0 0 0 0.25 0"/>
<feBlend mode="normal" in2="BackgroundImageFix" result="effect1_dropShadow_28034_176"/>
<feBlend mode="normal" in="SourceGraphic" in2="effect1_dropShadow_28034_176" result="shape"/>
</filter>
<filter id="filter2_d_28034_176" x="102.715" y="199.085" width="145.936" height="55.5694" filterUnits="userSpaceOnUse" color-interpolation-filters="sRGB">
<feFlood flood-opacity="0" result="BackgroundImageFix"/>
<feColorMatrix in="SourceAlpha" type="matrix" values="0 0 0 0 0 0 0 0 0 0 0 0 0 0 0 0 0 0 127 0" result="hardAlpha"/>
<feOffset dy="10.2537"/>
<feGaussianBlur stdDeviation="5.12685"/>
<feComposite in2="hardAlpha" operator="out"/>
<feColorMatrix type="matrix" values="0 0 0 0 0 0 0 0 0 0 0 0 0 0 0 0 0 0 0.25 0"/>
<feBlend mode="normal" in2="BackgroundImageFix" result="effect1_dropShadow_28034_176"/>
<feBlend mode="normal" in="SourceGraphic" in2="effect1_dropShadow_28034_176" result="shape"/>
</filter>
<linearGradient id="paint0_linear_28034_176" x1="43.5817" y1="119.556" x2="283.738" y2="295.241" gradientUnits="userSpaceOnUse">
<stop stop-color="#7ED957"/>
<stop offset="0.536111" stop-color="#1F4D3A"/>
<stop offset="1" stop-color="#7ED957"/>
</linearGradient>
<linearGradient id="paint1_linear_28034_176" x1="181.207" y1="168.3" x2="141.433" y2="130.865" gradientUnits="userSpaceOnUse">
<stop stop-color="#1E3D2B"/>
<stop offset="1" stop-color="#29684E"/>
</linearGradient>
<linearGradient id="paint2_linear_28034_176" x1="175.748" y1="276.705" x2="175.748" y2="83.291" gradientUnits="userSpaceOnUse">
<stop stop-color="#1F4D3A"/>
<stop offset="1" stop-color="#7ED957"/>
</linearGradient>
</defs>
</svg>
