<svg width="150" height="37" viewBox="0 0 150 37" fill="none" xmlns="http://www.w3.org/2000/svg">
<path d="M10.5299 29.2739C7.68949 29.2739 5.41714 28.6449 3.71287 27.387C2.0086 26.1088 1.01445 24.3133 0.7304 22.0003H5.23454C5.37656 23.1771 5.94465 24.1104 6.9388 24.8002C7.93296 25.4697 9.20102 25.8045 10.743 25.8045C12.0009 25.8045 12.9646 25.5813 13.6341 25.135C14.324 24.6886 14.6689 24.0901 14.6689 23.3394C14.6689 22.6293 14.466 22.0612 14.0602 21.6351C13.6544 21.1888 12.9545 20.8337 11.9603 20.57L7.88224 19.4439C5.79248 18.8555 4.26067 18.0541 3.2868 17.0397C2.33322 16.005 1.85643 14.7166 1.85643 13.1747C1.85643 11.8559 2.1912 10.7197 2.86073 9.76612C3.55056 8.79226 4.51428 8.05171 5.7519 7.54449C6.98953 7.01698 8.44018 6.75322 10.1039 6.75322C12.6603 6.75322 14.6993 7.36189 16.221 8.57922C17.7426 9.77627 18.6049 11.3689 18.8078 13.3573H14.3037C14.1008 12.2819 13.6037 11.4907 12.8124 10.9835C12.0415 10.4762 11.0473 10.2226 9.82997 10.2226C8.77495 10.2226 7.93296 10.4255 7.304 10.8313C6.67505 11.2371 6.36057 11.7849 6.36057 12.4747C6.36057 13.0022 6.53303 13.4891 6.87794 13.9355C7.22285 14.3616 7.9431 14.7268 9.03871 15.0311L13.1168 16.1571C15.2674 16.7455 16.8094 17.5571 17.7426 18.5918C18.6962 19.6062 19.173 20.8946 19.173 22.4568C19.173 24.648 18.4122 26.332 16.8905 27.5088C15.3688 28.6855 13.2487 29.2739 10.5299 29.2739ZM21.3747 29V7.08799H26.0614V29H21.3747ZM35.5566 29V7.08799H40.2433V29H35.5566ZM23.5659 15.7919H37.6869V19.3831H23.5659V15.7919ZM42.4871 29L50.3389 7.08799H54.3561L47.1434 29H42.4871ZM58.5559 29L51.3736 7.08799H55.5734L63.4252 29H58.5559ZM46.626 20.5091H58.9211V24.1611H46.626V20.5091ZM65.6873 29V7.08799H76.0955C77.7186 7.08799 79.1084 7.37203 80.2649 7.94012C81.4416 8.50821 82.3445 9.29948 82.9734 10.3139C83.6227 11.3284 83.9473 12.5153 83.9473 13.8746C83.9473 15.234 83.6227 16.431 82.9734 17.4658C82.3242 18.5005 81.4112 19.312 80.2344 19.9004C79.078 20.4685 77.6983 20.7526 76.0955 20.7526H69.4002V17.1614H75.852C76.9273 17.1614 77.7592 16.8672 78.3476 16.2789C78.9562 15.6702 79.2606 14.8789 79.2606 13.9051C79.2606 12.9312 78.9562 12.1501 78.3476 11.5617C77.7592 10.9733 76.9273 10.6791 75.852 10.6791H70.374V29H65.6873ZM86.1347 29V7.08799H90.8214V29H86.1347ZM88.3259 29V25.4089H102.447V29H88.3259ZM88.3259 19.5657V16.0354H101.382V19.5657H88.3259ZM88.3259 10.6791V7.08799H102.082V10.6791H88.3259Z" fill="white"/>
<path d="M114.974 29.3043C113.351 29.3043 111.85 29.0304 110.47 28.4826C109.111 27.9348 107.924 27.1639 106.91 26.1697C105.915 25.1553 105.134 23.9582 104.566 22.5786C104.018 21.1786 103.744 19.6367 103.744 17.9527C103.744 15.7209 104.221 13.7732 105.175 12.1095C106.128 10.4255 107.447 9.11688 109.131 8.18359C110.835 7.2503 112.773 6.78365 114.944 6.78365C117.155 6.78365 119.103 7.2503 120.787 8.18359C122.471 9.11688 123.79 10.4255 124.743 12.1095C125.717 13.7935 126.204 15.7513 126.204 17.9831C126.204 19.6468 125.92 21.1786 125.352 22.5786C124.804 23.9582 124.023 25.1553 123.009 26.1697C122.015 27.1639 120.828 27.9348 119.448 28.4826C118.089 29.0304 116.597 29.3043 114.974 29.3043ZM114.944 25.5915C116.222 25.5915 117.348 25.2668 118.322 24.6176C119.296 23.9684 120.057 23.0756 120.605 21.9395C121.173 20.783 121.457 19.4439 121.457 17.9223C121.457 16.4209 121.183 15.1122 120.635 13.9964C120.087 12.8805 119.326 12.0182 118.352 11.4095C117.379 10.8009 116.242 10.4965 114.944 10.4965C113.666 10.4965 112.54 10.8009 111.566 11.4095C110.592 12.0182 109.831 12.8805 109.283 13.9964C108.756 15.092 108.492 16.4006 108.492 17.9223C108.492 19.4642 108.766 20.8134 109.314 21.9699C109.862 23.1061 110.622 23.9988 111.596 24.648C112.57 25.277 113.686 25.5915 114.944 25.5915ZM128.634 29V7.08799H134.691L144.429 26.4436L142.938 26.8088V7.08799H147.503V29H141.447L131.708 9.64439L133.199 9.27919V29H128.634Z" fill="#9BE15D"/>
</svg>
