<svg width="89" height="574" viewBox="0 0 89 574" fill="none" xmlns="http://www.w3.org/2000/svg">
<path opacity="0.2" d="M26.0501 523.746C22.6443 524.084 19.9985 525.534 18.1126 528.095C16.2268 530.657 15.2839 534.133 15.2839 538.524C15.2839 541.507 15.7061 544.026 16.5505 546.081C17.3667 548.136 18.5067 549.712 19.9703 550.81C21.434 551.879 23.0947 552.414 24.9524 552.414C26.5005 552.471 27.8515 552.147 29.0056 551.443C30.1596 550.711 31.1588 549.712 32.0032 548.446C32.8195 547.179 33.5372 545.715 34.1565 544.055C34.7476 542.394 35.2542 540.621 35.6764 538.735L37.5341 530.966C38.3785 527.195 39.5044 523.732 40.9118 520.58C42.3191 517.427 44.0502 514.697 46.1049 512.389C48.1596 510.081 50.5803 508.294 53.3668 507.027C56.1534 505.732 59.3481 505.071 62.9509 505.043C68.2426 505.071 72.8305 506.422 76.7148 509.096C80.571 511.742 83.5686 515.57 85.7078 520.58C87.8188 525.562 88.8744 531.571 88.8744 538.608C88.8744 545.589 87.8048 551.668 85.6656 556.847C83.5264 561.998 80.3599 566.023 76.166 568.923C71.9439 571.794 66.7226 573.299 60.5021 573.44L60.5021 555.75C63.4013 555.553 65.8219 554.722 67.7641 553.259C69.6781 551.767 71.1276 549.783 72.1128 547.306C73.0698 544.8 73.5483 541.972 73.5483 538.819C73.5483 535.723 73.0979 533.035 72.1972 530.755C71.2965 528.447 70.044 526.66 68.4396 525.393C66.8352 524.126 64.9916 523.493 62.9087 523.493C60.9665 523.493 59.334 524.07 58.0111 525.224C56.6882 526.35 55.5623 528.011 54.6335 530.206C53.7046 532.374 52.8602 535.033 52.1002 538.186L49.7359 547.601C47.9626 554.891 45.1901 560.647 41.4184 564.869C37.6467 569.091 32.5662 571.188 26.1768 571.16C20.9414 571.188 16.3675 569.795 12.4551 566.98C8.54264 564.138 5.48868 560.239 3.29321 555.285C1.09774 550.331 3.04227e-06 544.702 2.76655e-06 538.397C2.48592e-06 531.98 1.09774 526.378 3.29321 521.593C5.48868 516.78 8.54264 513.037 12.4551 510.363C16.3675 507.689 20.8992 506.309 26.0501 506.225L26.0501 523.746ZM87.65 492.746L1.18218 492.746L1.18218 474.464L36.8586 474.464L36.8586 437.353L1.18218 437.353L1.18217 419.113L87.65 419.113L87.65 437.353L51.9313 437.353L51.9313 474.464L87.65 474.464L87.65 492.746ZM87.65 389.137L87.65 408.727L1.18217 378.877L1.18217 355.318L87.65 325.51L87.65 345.101L20.9414 366.76L20.9414 367.435L87.65 389.137ZM53.6624 390.361L53.6624 344.087L67.9329 344.087L67.9329 390.361L53.6624 390.361ZM87.65 315.103L1.18217 315.103L1.18217 280.989C1.18217 274.43 2.43471 268.843 4.9398 264.227C7.41674 259.611 10.8648 256.093 15.2838 253.672C19.6748 251.223 24.7413 249.999 30.4833 249.999C36.2253 249.999 41.2917 251.237 45.6827 253.714C50.0736 256.191 53.4935 259.78 55.9423 264.48C58.3911 269.153 59.6155 274.81 59.6155 281.453L59.6155 303.197L44.9649 303.197L44.9649 284.408C44.9649 280.89 44.3598 277.991 43.1494 275.711C41.911 273.403 40.2081 271.686 38.0407 270.56C35.8453 269.406 33.3261 268.829 30.4833 268.829C27.6123 268.829 25.1072 269.406 22.968 270.56C20.8007 271.686 19.1259 273.403 17.9437 275.711C16.7334 278.019 16.1283 280.946 16.1283 284.493L16.1283 296.821L87.65 296.821L87.65 315.103ZM87.6499 238.124L1.18217 238.124L1.18216 179.86L16.2549 179.86L16.2549 219.843L36.8586 219.843L36.8586 182.857L51.9313 182.857L51.9313 219.843L72.5772 219.843L72.5772 179.691L87.6499 179.691L87.6499 238.124ZM44.4161 85.8662C53.8453 85.8662 61.8672 87.6535 68.4818 91.2282C75.0964 94.7747 80.1487 99.616 83.639 105.752C87.1011 111.86 88.8321 118.728 88.8321 126.356C88.8321 134.04 87.087 140.936 83.5968 147.044C80.1065 153.152 75.0541 157.979 68.4396 161.525C61.825 165.072 53.8172 166.845 44.4161 166.845C34.9868 166.845 26.9649 165.072 20.3503 161.525C13.7358 157.979 8.69743 153.152 5.23534 147.044C1.7451 140.936 -1.49158e-05 134.04 -1.52518e-05 126.356C-1.55853e-05 118.728 1.7451 111.86 5.23534 105.752C8.69743 99.616 13.7358 94.7747 20.3503 91.2282C26.9649 87.6535 34.9868 85.8662 44.4161 85.8662ZM44.4161 104.401C38.3081 104.401 33.1572 105.316 28.9633 107.145C24.7694 108.947 21.5888 111.494 19.4215 114.787C17.2541 118.08 16.1705 121.937 16.1705 126.356C16.1705 130.775 17.2541 134.631 19.4215 137.924C21.5888 141.217 24.7694 143.779 28.9633 145.608C33.1572 147.41 38.3081 148.31 44.4161 148.31C50.524 148.31 55.6749 147.41 59.8688 145.608C64.0627 143.779 67.2433 141.217 69.4106 137.924C71.578 134.631 72.6616 130.775 72.6616 126.356C72.6616 121.937 71.578 118.08 69.4106 114.787C67.2433 111.494 64.0627 108.947 59.8688 107.145C55.6749 105.316 50.524 104.401 44.4161 104.401ZM1.18216 4.52123e-06L87.6499 7.43159e-07L87.6499 15.7905L33.2276 53.4091L33.2276 54.0424L87.6499 54.0424L87.6499 72.3239L1.18216 72.3239L1.18216 56.2801L55.5623 18.9571L55.5623 18.1971L1.18216 18.1971L1.18216 4.52123e-06Z" fill="white"/>
</svg>
